<svg xmlns="http://www.w3.org/2000/svg" width="50" height="50" viewBox="0 0 50 50">
    <defs>
        <clipPath id="mdpu51tqra">
            <path data-name="사각형 6561" transform="translate(0 -.006)" style="fill:none" d="M0 0h50v50H0z"/>
        </clipPath>
    </defs>
    <g data-name="그룹 7842" transform="translate(0 .006)" style="clip-path:url(#mdpu51tqra)">
        <path data-name="패스 13248" d="M0 25A25 25 0 1 0 25 0 25 25 0 0 0 0 25" style="fill:#5cb1fb"/>
        <g data-name="그룹 7844">
            <path data-name="패스 13249" d="M11.843 33.515a2.271 2.271 0 1 0 0 4.543h15.81a2.271 2.271 0 0 0 0-4.543z" transform="translate(5.248 -10.789)" style="fill:#fff"/>
            <path data-name="패스 13250" d="M10.236 40.922a2.272 2.272 0 1 0 3.213 3.213l6.745-6.743a2.272 2.272 0 1 0-3.212-3.213z" transform="translate(14.313 -10.787)" style="fill:#fff"/>
            <path data-name="패스 13251" d="M10.236 16.962a2.272 2.272 0 0 1 3.213-3.212l6.745 6.744a2.272 2.272 0 1 1-3.212 3.213z" transform="translate(14.313 2.897)" style="fill:#fff"/>
        </g>
    </g>
</svg>
