<svg xmlns="http://www.w3.org/2000/svg" width="42" height="42" viewBox="0 0 42 42">
    <defs>
        <clipPath id="chsmq84wta">
            <path data-name="사각형 6554" style="fill:none" d="M0 0h42v36.551H0z"/>
        </clipPath>
    </defs>
    <path data-name="사각형 6558" style="fill:transparent" d="M0 0h42v42H0z"/>
    <g data-name="그룹 7839">
        <g data-name="그룹 7830" style="clip-path:url(#chsmq84wta)" transform="translate(0 2.724)">
            <path data-name="패스 13231" d="M36.278 35.31h-6.521v-2.7h6.521a8.322 8.322 0 0 0 8.313-8.31V13.307A10.617 10.617 0 0 0 33.985 2.7h-4.228a10.617 10.617 0 0 0-10.605 10.607V24.03h-2.7V13.307A13.322 13.322 0 0 1 29.757 0h4.228a13.322 13.322 0 0 1 13.307 13.307V24.3a11.027 11.027 0 0 1-11.014 11.01" transform="translate(-10.895)" style="fill:#0d6eee"/>
            <path data-name="패스 13232" d="M59.586 95a2.688 2.688 0 1 1-2.686-2.683A2.688 2.688 0 0 1 59.586 95" transform="translate(-35.904 -61.141)" style="fill:#bcd7fb"/>
            <path data-name="패스 13233" d="M6.533 52.9a6.533 6.533 0 1 1 0-13.065 1.74 1.74 0 0 1 1.74 1.74v9.585a1.74 1.74 0 0 1-1.74 1.74" transform="translate(0 -26.379)" style="fill:#0d6eee"/>
            <path data-name="패스 13234" d="M101.613 52.9a6.533 6.533 0 1 0 0-13.065 1.74 1.74 0 0 0-1.74 1.74v9.585a1.74 1.74 0 0 0 1.74 1.74" transform="translate(-66.145 -26.379)" style="fill:#0d6eee"/>
            <path data-name="패스 13235" d="M45.688 44.807h-8.1a6.485 6.485 0 0 1-6.488-6.486v-8.24a6.485 6.485 0 0 1 6.489-6.481h8.1a6.485 6.485 0 0 1 6.485 6.486v8.24a6.485 6.485 0 0 1-6.485 6.485" transform="translate(-20.6 -15.628)" style="fill:#fff7dc"/>
            <path data-name="패스 13236" d="M47.5 45.44v-.553a1.351 1.351 0 0 0-2.7 0v.553a1.351 1.351 0 0 0 2.7 0" transform="translate(-29.67 -28.834)" style="fill:#ffd33d"/>
            <path data-name="패스 13237" d="M73.15 43.537a1.352 1.352 0 0 0-1.35 1.351v.553a1.351 1.351 0 1 0 2.7 0v-.553a1.352 1.352 0 0 0-1.351-1.351" transform="translate(-47.552 -28.834)" style="fill:#ffd33d"/>
            <path data-name="패스 13238" d="M56.408 61.818a2.85 2.85 0 0 1-4.026 0 1.182 1.182 0 0 0-1.672 1.672 5.217 5.217 0 0 0 7.369 0 1.182 1.182 0 1 0-1.671-1.672" transform="translate(-33.356 -40.713)" style="fill:#ffd33d"/>
        </g>
    </g>
</svg>
