<svg xmlns="http://www.w3.org/2000/svg" width="42" height="42" viewBox="0 0 42 42">
    <defs>
        <clipPath id="2akxusjpda">
            <path data-name="사각형 6557" style="fill:none" d="M0 0h42v36.482H0z"/>
        </clipPath>
    </defs>
    <path data-name="사각형 6559" style="fill:transparent" d="M0 0h42v42H0z"/>
    <g data-name="그룹 7838">
        <g data-name="그룹 7835" transform="translate(0 2.759)" style="clip-path:url(#2akxusjpda)">
            <path data-name="패스 13241" d="M49.044 21.01v14.547a3.207 3.207 0 0 1-1.6 2.778l-10.98 6.339a3.207 3.207 0 0 1-3.207 0l-10.98-6.339a3.207 3.207 0 0 1-1.6-2.778V21.01l14.286-8.174z" transform="translate(-13.884 -8.622)" style="fill:#0d6eee"/>
            <path data-name="패스 13242" d="m20.67 21.01 14.187 8.19 14.187-8.19-14.088-8.174z" transform="translate(-13.883 -8.622)" style="fill:#fff7dc"/>
            <path data-name="패스 13243" d="M21 4.215 6.714 12.389.8 9.076A1.567 1.567 0 0 1 .789 6.35L11.189.4a3.02 3.02 0 0 1 2.975-.015z" style="fill:#ffd33d"/>
            <path data-name="패스 13244" d="m63.962 4.215 14.286 8.174 5.913-3.312a1.567 1.567 0 0 0 .012-2.726L73.773.4A3.02 3.02 0 0 0 70.8.385z" transform="translate(-42.962)" style="fill:#ffd33d"/>
            <path data-name="패스 13245" d="m1.548 43.418 9.913 5.874a3.349 3.349 0 0 0 3.205.115l6.916-3.457L7.28 37.759l-5.652 2.919a1.566 1.566 0 0 0-.08 2.74" transform="translate(-.524 -25.362)" style="fill:#ffd33d"/>
            <path data-name="패스 13246" d="M83.818 43.418 73.9 49.292a3.349 3.349 0 0 1-3.205.115l-6.912-3.457 14.3-8.191 5.652 2.919a1.566 1.566 0 0 1 .08 2.74" transform="translate(-42.842 -25.362)" style="fill:#ffd33d"/>
            <path data-name="패스 13247" d="M61.275 81.469a1.313 1.313 0 0 1-1.313-1.313v-7.28a1.313 1.313 0 1 1 2.627 0v7.28a1.313 1.313 0 0 1-1.313 1.313" transform="translate(-40.275 -48.067)" style="fill:#bcd7fb"/>
        </g>
    </g>
</svg>
