<svg xmlns="http://www.w3.org/2000/svg" width="106" height="106" viewBox="0 0 106 106">
    <circle data-name="타원 732" cx="53" cy="53" r="53" style="fill:#0d6eee"/>
    <g data-name="그룹 7802">
        <g data-name="그룹 7804">
            <path data-name="패스 13206" d="M41.482 24.6h-3.709a.536.536 0 0 1-.536-.536v-3.711a.536.536 0 0 1 .536-.536h3.709a.536.536 0 0 1 .536.536v3.709a.536.536 0 0 1-.536.536" transform="translate(13.502 16.601)" style="fill:#fff"/>
            <path data-name="패스 13207" d="M23.117 24.6h-3.709a.536.536 0 0 1-.536-.536v-3.711a.536.536 0 0 1 .536-.536h3.709a.536.536 0 0 1 .536.536v3.709a.536.536 0 0 1-.536.536" transform="translate(23.422 16.601)" style="fill:#fff"/>
            <path data-name="패스 13208" d="M59.846 24.6h-3.709a.536.536 0 0 1-.536-.536v-3.711a.536.536 0 0 1 .536-.536h3.709a.536.536 0 0 1 .536.536v3.709a.536.536 0 0 1-.536.536" transform="translate(3.583 16.601)" style="fill:#fff"/>
            <path data-name="패스 13209" d="M41.482 44.963h-3.709a.536.536 0 0 1-.536-.536v-3.709a.536.536 0 0 1 .536-.536h3.709a.536.536 0 0 1 .536.536v3.709a.536.536 0 0 1-.536.536" transform="translate(13.502 5.601)" style="fill:#fff"/>
            <path data-name="패스 13210" d="M23.117 44.963h-3.709a.536.536 0 0 1-.536-.536v-3.709a.536.536 0 0 1 .536-.536h3.709a.536.536 0 0 1 .536.536v3.709a.536.536 0 0 1-.536.536" transform="translate(23.422 5.601)" style="fill:#fff"/>
            <path data-name="패스 13211" d="M59.846 44.963h-3.709a.536.536 0 0 1-.536-.536v-3.709a.536.536 0 0 1 .536-.536h3.709a.536.536 0 0 1 .536.536v3.709a.536.536 0 0 1-.536.536" transform="translate(3.583 5.601)" style="fill:#fff"/>
            <path data-name="패스 13212" d="M41.482 65.328h-3.709a.536.536 0 0 1-.536-.536v-3.709a.536.536 0 0 1 .536-.536h3.709a.536.536 0 0 1 .536.536v3.709a.536.536 0 0 1-.536.536" transform="translate(13.502 -5.399)" style="fill:#fff"/>
            <path data-name="패스 13213" d="M23.117 65.328h-3.709a.536.536 0 0 1-.536-.536v-3.709a.536.536 0 0 1 .536-.536h3.709a.536.536 0 0 1 .536.536v3.709a.536.536 0 0 1-.536.536" transform="translate(23.422 -5.399)" style="fill:#fff"/>
            <path data-name="패스 13214" d="M59.846 65.328h-3.709a.536.536 0 0 1-.536-.536v-3.709a.536.536 0 0 1 .536-.536h3.709a.536.536 0 0 1 .536.536v3.709a.536.536 0 0 1-.536.536" transform="translate(3.583 -5.399)" style="fill:#fff"/>
        </g>
        <g data-name="그룹 7803">
            <path data-name="사각형 6516" d="M6.327 0h23.815a6.327 6.327 0 0 1 6.327 6.327V47.09a2 2 0 0 1-2 2H2a2 2 0 0 1-2-2V6.327A6.327 6.327 0 0 1 6.327 0z" style="fill:none;stroke:#fff;stroke-miterlimit:10;stroke-width:3.5px" transform="translate(34.765 28.455)"/>
            <path data-name="패스 13215" d="M41.494 96.93h-8.742v-8.823a1.667 1.667 0 0 1 1.667-1.666h5.409a1.666 1.666 0 0 1 1.667 1.666z" transform="translate(15.924 -19.385)" style="fill:none;stroke:#fff;stroke-miterlimit:10;stroke-width:3.5px"/>
        </g>
    </g>
</svg>
